<svg xmlns="http://www.w3.org/2000/svg" viewBox="0 0 890 165" role="img" aria-label="Vold Motor" fill="none">
  <defs>
    <linearGradient id="vmg" x1="20" y1="24" x2="100" y2="142" gradientUnits="userSpaceOnUse">
      <stop offset="0" stop-color="#2563eb"/>
      <stop offset="1" stop-color="#3b82f6"/>
    </linearGradient>
  </defs>
  <path d="M24 26 L62 140 L104 26" fill="none" stroke="url(#vmg)" stroke-width="26" stroke-linecap="round" stroke-linejoin="round"/>
  <path d="M62 140 C54 153 42 154 30 148" fill="none" stroke="url(#vmg)" stroke-width="12" stroke-linecap="round"/>
  <g transform="translate(108.0 138.0) scale(0.16 -0.16)"><path d="M34 277Q34 362 71.5 427.0Q109 492 174.0 527.5Q239 563 319 563Q399 563 464.0 527.5Q529 492 566.5 427.0Q604 362 604 277Q604 192 565.5 127.0Q527 62 461.5 26.5Q396 -9 315 -9Q235 -9 171.0 26.5Q107 62 70.5 127.0Q34 192 34 277ZM460 277Q460 356 418.5 398.5Q377 441 317 441Q257 441 216.5 398.5Q176 356 176 277Q176 198 215.5 155.5Q255 113 315 113Q353 113 386.5 131.5Q420 150 440.0 187.0Q460 224 460 277ZM847 740V0H707V740ZM1203 563Q1257 563 1306.0 539.5Q1355 516 1384 477V740H1526V0H1384V82Q1358 41 1311.0 16.0Q1264 -9 1202 -9Q1132 -9 1074.0 27.0Q1016 63 982.5 128.5Q949 194 949 279Q949 363 982.5 428.0Q1016 493 1074.0 528.0Q1132 563 1203 563ZM1238 440Q1199 440 1166.0 421.0Q1133 402 1112.5 365.5Q1092 329 1092 279Q1092 229 1112.5 191.5Q1133 154 1166.5 134.0Q1200 114 1238 114Q1277 114 1311.0 133.5Q1345 153 1365.0 189.5Q1385 226 1385 277Q1385 328 1365.0 364.5Q1345 401 1311.0 420.5Q1277 440 1238 440ZM2662 698V0H2522V454L2335 0H2229L2041 454V0H1901V698H2060L2282 179L2504 698ZM2765 277Q2765 362 2802.5 427.0Q2840 492 2905.0 527.5Q2970 563 3050 563Q3130 563 3195.0 527.5Q3260 492 3297.5 427.0Q3335 362 3335 277Q3335 192 3296.5 127.0Q3258 62 3192.5 26.5Q3127 -9 3046 -9Q2966 -9 2902.0 26.5Q2838 62 2801.5 127.0Q2765 192 2765 277ZM3191 277Q3191 356 3149.5 398.5Q3108 441 3048 441Q2988 441 2947.5 398.5Q2907 356 2907 277Q2907 198 2946.5 155.5Q2986 113 3046 113Q3084 113 3117.5 131.5Q3151 150 3171.0 187.0Q3191 224 3191 277ZM3601 439V171Q3601 143 3614.5 130.5Q3628 118 3660 118H3725V0H3637Q3460 0 3460 172V439H3394V554H3460V691H3601V554H3725V439ZM3791 277Q3791 362 3828.5 427.0Q3866 492 3931.0 527.5Q3996 563 4076 563Q4156 563 4221.0 527.5Q4286 492 4323.5 427.0Q4361 362 4361 277Q4361 192 4322.5 127.0Q4284 62 4218.5 26.5Q4153 -9 4072 -9Q3992 -9 3928.0 26.5Q3864 62 3827.5 127.0Q3791 192 3791 277ZM4217 277Q4217 356 4175.5 398.5Q4134 441 4074 441Q4014 441 3973.5 398.5Q3933 356 3933 277Q3933 198 3972.5 155.5Q4012 113 4072 113Q4110 113 4143.5 131.5Q4177 150 4197.0 187.0Q4217 224 4217 277ZM4774 562V415H4737Q4671 415 4637.5 384.0Q4604 353 4604 276V0H4464V554H4604V468Q4631 512 4674.5 537.0Q4718 562 4774 562Z" fill="currentColor"/></g>
</svg>
